<svg xmlns="http://www.w3.org/2000/svg" width="67.767" height="26.82" viewBox="0 0 67.767 26.82">
  <g id="Group_7" data-name="Group 7" transform="translate(-87.308 -51.225)">
    <path id="Path_1" data-name="Path 1" d="M11.939-34.56q-.3,0-.963-.057t-1.064-.057H8.6a7.179,7.179,0,0,0-.017,1.15c0,7.728,4.5,15.187,3.361,18.716-.833,2.6-7.414,2.072-9.609,2.072-2.094,0-7.645-4.115-9.694-5.5-2.319-1.543,0,.067,0-2.016q0-2.526,2.381-2.526T-2.6-20.28q0,.955,1.714,2.048A6.053,6.053,0,0,0,2.33-17.139c.405,0,1.323,1.436,1.5,0,.045-.345,2.542-.13,2.744-3.141.169-2.461-2.744-9.574-2.744-13.244q0-.227-.051-1.052l-.388.016q-.743.032-1.993-.016-1.5-.065-1.993-.065a2.534,2.534,0,0,1-1.689-.583c-.5-.421-10.032-.9-10.032-1.57,0-1.468,10.3-2.267,12.312-2.267q.574,0,1.706.04t1.689.04q1.064,0,3.183-.113t3.183-.113c3.017,0,15.351.8,15.351,2.412,0,.561-11.028,1.063-11.433,1.506A2.3,2.3,0,0,1,11.939-34.56Z" transform="translate(99.621 90.431)" fill="#0c0b0b" opacity="0.81"/>
    <path id="Path_2" data-name="Path 2" d="M2.246,21.312a2.473,2.473,0,0,1-1.6-.545A1.619,1.619,0,0,1,0,19.469q.006-1.361.172-4.083T.345,11.3Q.352,9.793.292,6.772T.239,2.241A2.064,2.064,0,0,1,1.106.748,2.785,2.785,0,0,1,2.941,0,11.142,11.142,0,0,1,5.63.834q2.509,1,2.979,1.119A21.674,21.674,0,0,1,16.7,5.925q3.991,3.211,3.974,7.116a8.143,8.143,0,0,1-1.4,4.482,10.233,10.233,0,0,1-3.794,3.483A16.079,16.079,0,0,1,7.9,22.5a15.111,15.111,0,0,1-2.723-.276A10.455,10.455,0,0,1,2.246,21.312ZM11.422,7.291A58.944,58.944,0,0,0,4.688,4.7l-.06,13.472a5.3,5.3,0,0,0,1.449.505,8.976,8.976,0,0,0,1.824.164,11.375,11.375,0,0,0,5.031-.834,6.16,6.16,0,0,0,2.3-2.117,5.12,5.12,0,0,0,.864-2.779Q16.114,9.737,11.422,7.291Z" transform="translate(112.519 55.184) rotate(1)" fill="#0c0b0b"/>
    <path id="Path_3" data-name="Path 3" d="M21.376,21.228a12.657,12.657,0,0,1-4.439,7.07A12.449,12.449,0,0,1,9,30.966q-4.309,0-6.464-2.082T.381,22.636a17.015,17.015,0,0,1,2.041-7.782A18.867,18.867,0,0,1,7.671,8.392,7.767,7.767,0,0,1,12.5,6.658,12.861,12.861,0,0,1,16.775,7.7q3.208,1.23,3.208,2.623a1.926,1.926,0,0,1-.664,1.43,2.287,2.287,0,0,1-1.636.63,6.875,6.875,0,0,1-2.147-.837A6.832,6.832,0,0,0,12.5,10.7q-1.458,0-3.937,2.875a13.59,13.59,0,0,0-3.613,9.056A5.206,5.206,0,0,0,5.743,26q.842.934,3.256.934a7.514,7.514,0,0,0,4.358-1.29,7.957,7.957,0,0,0,2.948-3.972,21.217,21.217,0,0,0-6.545,1.408,2.612,2.612,0,0,1-1,.208,2.233,2.233,0,0,1-1.669-.682,1.913,1.913,0,0,1-.6-1.378q0-2.268,5.864-3.172a51.78,51.78,0,0,1,7.711-.5,2.374,2.374,0,0,1,1.628.578,1.823,1.823,0,0,1,.656,1.423A1.862,1.862,0,0,1,21.376,21.228Z" transform="translate(132.727 46.819)" fill="#0c0b0b"/>
  </g>
</svg>
